<svg width="121" height="120" viewBox="0 0 121 120" fill="none" xmlns="http://www.w3.org/2000/svg">
<path d="M57.8997 114.182C57.9637 114.722 58.2229 115.141 58.6774 115.439C59.132 115.737 59.6895 115.886 60.35 115.886C60.833 115.886 61.2556 115.808 61.6178 115.652C61.9764 115.496 62.257 115.281 62.4594 115.007C62.6583 114.734 62.7577 114.423 62.7577 114.075C62.7577 113.784 62.6884 113.534 62.5499 113.324C62.4079 113.118 62.2268 112.946 62.0066 112.808C61.7865 112.673 61.5556 112.561 61.3142 112.472C61.0727 112.387 60.8507 112.317 60.6483 112.264L59.5404 111.966C59.2563 111.891 58.9402 111.788 58.5922 111.657C58.2406 111.526 57.9051 111.346 57.5855 111.119C57.2623 110.895 56.996 110.608 56.7865 110.256C56.5769 109.904 56.4722 109.473 56.4722 108.962C56.4722 108.372 56.6267 107.839 56.9356 107.364C57.241 106.888 57.6884 106.51 58.2779 106.229C58.8639 105.949 59.5759 105.808 60.4139 105.808C61.1952 105.808 61.8717 105.934 62.4434 106.186C63.0116 106.439 63.459 106.79 63.7857 107.241C64.1089 107.692 64.2918 108.216 64.3344 108.812H62.9708C62.9352 108.401 62.7968 108.06 62.5553 107.79C62.3102 107.523 62.0013 107.325 61.6284 107.193C61.252 107.065 60.8472 107.001 60.4139 107.001C59.9097 107.001 59.4569 107.083 59.0556 107.246C58.6543 107.413 58.3365 107.644 58.1021 107.939C57.8678 108.237 57.7506 108.585 57.7506 108.983C57.7506 109.345 57.8518 109.64 58.0542 109.867C58.2566 110.094 58.523 110.279 58.8532 110.421C59.1835 110.563 59.5404 110.688 59.9239 110.794L61.2662 111.178C62.1185 111.423 62.7932 111.772 63.2904 112.227C63.7875 112.681 64.0361 113.276 64.0361 114.011C64.0361 114.622 63.871 115.155 63.5407 115.609C63.2069 116.067 62.7595 116.423 62.1984 116.675C61.6338 116.93 61.0034 117.058 60.3074 117.058C59.6043 117.058 58.9793 116.932 58.4324 116.68C57.8855 116.431 57.4523 116.091 57.1327 115.657C56.8095 115.224 56.6391 114.732 56.6213 114.182H57.8997Z" fill="#FCF8DB"/>
<path d="M40.7695 110.009L42.0371 110.382C42.005 110.768 42.0421 111.127 42.1485 111.458C42.2514 111.788 42.4083 112.086 42.619 112.351C42.8254 112.619 43.0747 112.848 43.3669 113.037C43.6592 113.227 43.9791 113.372 44.3267 113.474C44.9604 113.66 45.5816 113.669 46.1901 113.5C46.7952 113.329 47.341 112.977 47.8273 112.443C48.3102 111.907 48.6848 111.186 48.9509 110.28C49.217 109.374 49.2917 108.565 49.1749 107.853C49.0548 107.14 48.7862 106.549 48.3691 106.079C47.9487 105.607 47.4216 105.279 46.7878 105.092C46.4403 104.99 46.0923 104.94 45.744 104.941C45.3957 104.943 45.0629 104.999 44.7455 105.109C44.4237 105.222 44.1303 105.389 43.8653 105.611C43.5958 105.835 43.3706 106.117 43.1896 106.456L41.9221 106.084C42.1746 105.577 42.4889 105.15 42.8651 104.801C43.2413 104.453 43.6603 104.185 44.1222 103.999C44.583 103.816 45.0693 103.716 45.5812 103.7C46.0896 103.683 46.6078 103.752 47.136 103.907C48.0287 104.169 48.7586 104.62 49.3256 105.26C49.8926 105.9 50.2574 106.681 50.4199 107.602C50.5825 108.524 50.5017 109.536 50.1775 110.64C49.8534 111.744 49.3739 112.64 48.7391 113.327C48.1044 114.014 47.3754 114.473 46.5523 114.705C45.7291 114.937 44.8712 114.922 43.9785 114.66C43.4504 114.505 42.9771 114.283 42.5587 113.993C42.137 113.703 41.7822 113.355 41.4944 112.948C41.2057 112.545 40.9972 112.095 40.8692 111.599C40.7401 111.106 40.7069 110.576 40.7695 110.009Z" fill="#FCF8DB"/>
<path d="M38.2538 100.517L32.3559 109.694L29.255 107.701C28.538 107.241 28.0282 106.74 27.7256 106.199C27.4211 105.662 27.2946 105.11 27.3461 104.543C27.3977 103.977 27.5972 103.424 27.9447 102.883C28.2922 102.342 28.7109 101.934 29.2007 101.658C29.6906 101.381 30.2408 101.271 30.8515 101.325C31.4602 101.383 32.1201 101.64 32.8311 102.097L35.3405 103.71L34.6955 104.714L32.2219 103.124C31.732 102.809 31.2915 102.628 30.9006 102.579C30.5068 102.529 30.1581 102.592 29.8547 102.768C29.5465 102.946 29.2742 103.218 29.0381 103.586C28.8019 103.953 28.6643 104.318 28.6251 104.681C28.5858 105.045 28.6691 105.398 28.8748 105.741C29.0787 106.087 29.4285 106.42 29.9244 106.739L31.8782 107.994L37.1425 99.8027L38.2538 100.517ZM31.2846 101.863L31.6756 96.2893L32.9661 97.1187L32.5393 102.67L31.2846 101.863Z" fill="#FCF8DB"/>
<path d="M17.9155 89.7389C18.785 88.9854 19.6725 88.4913 20.5779 88.2565C21.4834 88.0217 22.3451 88.0292 23.163 88.279C23.9809 88.5288 24.6945 89.0053 25.3038 89.7084C25.9131 90.4116 26.2832 91.1857 26.4141 92.0309C26.5449 92.876 26.4297 93.73 26.0685 94.5928C25.7072 95.4557 25.0918 96.2638 24.2222 97.0173C23.3527 97.7707 22.4652 98.2649 21.5597 98.4997C20.6543 98.7345 19.7926 98.727 18.9747 98.4772C18.1567 98.2274 17.4431 97.7509 16.8338 97.0477C16.2246 96.3446 15.8545 95.5704 15.7236 94.7253C15.5927 93.8801 15.7079 93.0261 16.0692 92.1633C16.4305 91.3005 17.0459 90.4923 17.9155 89.7389ZM18.7526 90.705C18.0388 91.3236 17.5397 91.9651 17.2556 92.6295C16.9691 93.2913 16.8753 93.9341 16.9742 94.5579C17.0707 95.1791 17.3353 95.7393 17.7678 96.2384C18.2003 96.7376 18.7183 97.0805 19.3217 97.2672C19.9228 97.4512 20.5724 97.4498 21.2705 97.2631C21.9663 97.0737 22.6711 96.6697 23.385 96.0511C24.0989 95.4325 24.5991 94.7924 24.8856 94.1306C25.1697 93.4662 25.2635 92.8234 25.167 92.2023C25.0681 91.5784 24.8024 91.0169 24.3699 90.5177C23.9373 90.0185 23.4205 89.677 22.8194 89.493C22.216 89.3063 21.5664 89.3077 20.8706 89.4971C20.1725 89.6838 19.4665 90.0865 18.7526 90.705Z" fill="#FCF8DB"/>
<path d="M19.3159 81.2962L9.39264 85.828L8.84386 84.6264L17.7011 80.5814L15.5946 75.9686L16.6605 75.4818L19.3159 81.2962Z" fill="#FCF8DB"/>
<path d="M14.8735 68.8424L4.07547 70.3949L3.88746 69.0873L13.5256 67.7016L12.8039 62.6822L13.9638 62.5154L14.8735 68.8424Z" fill="#FCF8DB"/>
<path d="M17.9237 40.9935L16.5252 44.0558L6.60195 39.524L8.06239 36.326C8.502 35.3634 9.07684 34.6305 9.78689 34.1271C10.4937 33.6223 11.3003 33.3562 12.2068 33.329C13.11 33.3004 14.0752 33.5206 15.1024 33.9897C16.136 34.4618 16.9419 35.0523 17.5199 35.7613C18.0947 36.4689 18.4215 37.2662 18.5005 38.1533C18.5762 39.0389 18.384 39.9857 17.9237 40.9935ZM16.008 42.3673L16.8223 40.5842C17.197 39.7637 17.3493 39.0115 17.2791 38.3275C17.2089 37.6435 16.9419 37.0355 16.4782 36.5036C16.0145 35.9717 15.3789 35.5214 14.5713 35.1526C13.7702 34.7867 13.0208 34.6026 12.3231 34.6002C11.6222 34.5963 10.9979 34.7836 10.4503 35.162C9.89945 35.539 9.44701 36.1151 9.09296 36.8904L8.2167 38.8091L16.008 42.3673Z" fill="#FCF8DB"/>
<path d="M24.5455 21.8509C25.415 22.6043 26.0305 23.4125 26.3917 24.2753C26.753 25.1381 26.8682 25.9921 26.7373 26.8373C26.6065 27.6824 26.2364 28.4566 25.6271 29.1597C25.0178 29.8629 24.3042 30.3393 23.4863 30.5892C22.6684 30.839 21.8067 30.8465 20.9012 30.6117C19.9958 30.3769 19.1083 29.8827 18.2387 29.1293C17.3692 28.3758 16.7538 27.5677 16.3925 26.7048C16.0312 25.842 15.916 24.988 16.0469 24.1429C16.1778 23.2977 16.5478 22.5236 17.1571 21.8204C17.7664 21.1173 18.48 20.6408 19.2979 20.391C20.1159 20.1411 20.9776 20.1336 21.883 20.3685C22.7885 20.6033 23.676 21.0974 24.5455 21.8509ZM23.7083 22.817C22.9944 22.1984 22.2884 21.7958 21.5903 21.6091C20.8946 21.4197 20.245 21.4183 19.6415 21.605C19.0404 21.7889 18.5236 22.1305 18.0911 22.6297C17.6585 23.1289 17.3928 23.6904 17.294 24.3142C17.1974 24.9354 17.2912 25.5782 17.5754 26.2426C17.8619 26.9044 18.362 27.5445 19.0759 28.1631C19.7898 28.7817 20.4946 29.1857 21.1904 29.3751C21.8885 29.5618 22.5381 29.5631 23.1392 29.3792C23.7426 29.1925 24.2606 28.8496 24.6932 28.3504C25.1257 27.8512 25.3902 27.2911 25.4868 26.6699C25.5857 26.0461 25.4919 25.4033 25.2054 24.7415C24.9212 24.0771 24.4222 23.4356 23.7083 22.817Z" fill="#FCF8DB"/>
<path d="M32.3285 22.5323L23.9212 14.9677L25.0505 14.242L31.7719 20.4839L31.8616 20.4263L29.0118 11.6962L30.2665 10.8899L37.0238 17.1087L37.1134 17.0511L34.2278 8.34409L35.357 7.61837L38.7455 18.4084L37.5983 19.1456L30.873 13.1341L30.8013 13.1802L33.4757 21.7951L32.3285 22.5323Z" fill="#FCF8DB"/>
<path d="M48.6528 3.36405L51.7262 13.8312L50.4996 14.1914L42.3826 7.64782L42.2804 7.67783L44.6936 15.8962L43.426 16.2684L40.3526 5.8012L41.5792 5.44103L49.7226 11.9991L49.8248 11.9691L47.4057 3.73022L48.6528 3.36405Z" fill="#FCF8DB"/>
<path d="M72.2918 4.62553L72.622 3.50113L80.4724 5.80621L80.1422 6.93062L76.8508 5.96416L74.1075 15.307L72.84 14.9348L75.5833 5.59199L72.2918 4.62553Z" fill="#FCF8DB"/>
<path d="M92.6861 18.752C92.064 19.7199 91.3517 20.444 90.5491 20.9244C89.7464 21.4048 88.9175 21.6404 88.0624 21.6311C87.2072 21.6219 86.3883 21.3657 85.6056 20.8627C84.8229 20.3597 84.2497 19.7212 83.886 18.9471C83.5223 18.1731 83.3922 17.3212 83.4958 16.3916C83.5994 15.4619 83.9622 14.5131 84.5842 13.5452C85.2063 12.5773 85.9186 11.8531 86.7212 11.3727C87.5238 10.8923 88.3527 10.6568 89.2079 10.666C90.0631 10.6753 90.882 10.9315 91.6647 11.4345C92.4474 11.9375 93.0206 12.576 93.3843 13.3501C93.748 14.1241 93.878 14.9759 93.7745 15.9056C93.6709 16.8353 93.3081 17.784 92.6861 18.752ZM91.6106 18.0608C92.1213 17.2662 92.4194 16.51 92.5048 15.7925C92.5933 15.0768 92.5022 14.4337 92.2316 13.8629C91.9639 13.2941 91.5523 12.8312 90.9966 12.4741C90.4409 12.117 89.8473 11.9339 89.2158 11.9248C88.5872 11.9176 87.9643 12.102 87.3471 12.4778C86.7328 12.8555 86.1704 13.4417 85.6597 14.2364C85.149 15.031 84.8494 15.7862 84.761 16.5018C84.6755 17.2194 84.7666 17.8626 85.0342 18.4314C85.3049 19.0021 85.718 19.466 86.2737 19.8231C86.8293 20.1802 87.4215 20.3623 88.05 20.3695C88.6816 20.3786 89.3045 20.1943 89.9187 19.8165C90.536 19.4407 91.0999 18.8555 91.6106 18.0608Z" fill="#FCF8DB"/>
<path d="M101.148 37.1917L111.071 32.6599L112.603 36.0129C112.957 36.7882 113.115 37.485 113.077 38.1034C113.043 38.7204 112.851 39.2531 112.501 39.7016C112.152 40.1501 111.684 40.5079 111.1 40.7749C110.515 41.0419 109.942 41.1592 109.381 41.1267C108.819 41.0941 108.296 40.8898 107.812 40.5136C107.331 40.1359 106.915 39.5627 106.564 38.7939L105.325 36.0805L106.411 35.5848L107.632 38.2594C107.874 38.7892 108.146 39.1802 108.449 39.4324C108.753 39.6878 109.08 39.8233 109.431 39.8389C109.786 39.8562 110.162 39.7741 110.56 39.5926C110.957 39.4112 111.27 39.1783 111.5 38.894C111.729 38.6097 111.85 38.2675 111.863 37.8675C111.878 37.466 111.764 36.9972 111.519 36.461L110.554 34.3484L101.697 38.3934L101.148 37.1917ZM107.739 39.8269L104.396 44.3047L103.759 42.9092L107.119 38.4702L107.739 39.8269Z" fill="#FCF8DB"/>
<path d="M105.861 49.8909L116.659 48.3384L117.596 54.8552L116.436 55.022L115.687 49.8127L112.039 50.3373L112.739 55.2091L111.579 55.3759L110.879 50.5041L107.209 51.0317L107.97 56.3253L106.81 56.4921L105.861 49.8909Z" fill="#FCF8DB"/>
<path d="M117.543 64.7543L107.993 66.653L107.975 66.7796L116.603 71.2922L116.406 72.663L106.178 67.1456L106.372 65.7958L117.741 63.3834L117.543 64.7543Z" fill="#FCF8DB"/>
<path d="M103.905 76.0116L113.829 80.5434L111.094 86.5322L110.028 86.0454L112.214 81.2582L108.861 79.727L106.816 84.2041L105.75 83.7173L107.795 79.2402L104.423 77.7001L102.201 82.5648L101.135 82.078L103.905 76.0116Z" fill="#FCF8DB"/>
<path d="M97.4527 87.6873L98.3597 86.6406L103.981 96.8119L103.088 97.8424L92.2204 93.7258L93.1273 92.6791L102.202 96.2292L102.258 96.1648L97.4527 87.6873ZM100.338 90.8644L96.6827 95.0833L95.7971 94.3159L99.4528 90.097L100.338 90.8644Z" fill="#FCF8DB"/>
<path d="M87.7064 97.2057L93.6043 106.383L92.4929 107.097L87.2286 98.9058L82.9626 101.647L82.329 100.662L87.7064 97.2057Z" fill="#FCF8DB"/>
<path d="M52 54L64 66L76 54" stroke="#B3B3B3" stroke-width="4" stroke-linecap="round" stroke-linejoin="round"/>
</svg>
