<svg width="1280" height="39" viewBox="0 0 1280 39" fill="none" xmlns="http://www.w3.org/2000/svg">
<path d="M942.971 25.2101L1286.61 25.2101C1296.21 25.2101 1304 32.9981 1304 42.605C1304 52.212 1296.21 60 1286.6 60L-96.7206 60C-111.322 60 -119.426 43.0974 -110.283 31.713C-106.982 27.6018 -101.993 25.2101 -96.7206 25.2101L108.207 25.2101L435.372 25.2101C454.938 25.2101 474.385 22.1881 493.028 16.2511L515.925 8.95903C534.568 3.02197 554.016 0 573.581 0L803.574 0C822.308 0 840.939 2.77069 858.862 8.22215L887.683 16.9879C905.606 22.4394 924.237 25.2101 942.971 25.2101Z" fill="url(#paint0_linear_41_3)"/>
<defs>
<linearGradient id="paint0_linear_41_3" x1="1304" y1="30" x2="-133" y2="30" gradientUnits="userSpaceOnUse">
<stop stop-color="#6F4F21"/>
<stop offset="0.47" stop-color="#D5983F"/>
<stop offset="1" stop-color="#6F4F21" stop-opacity="0.8"/>
</linearGradient>
</defs>
</svg>
